<svg width="137" height="51" viewBox="0 0 137 51" fill="none" xmlns="http://www.w3.org/2000/svg">
<path d="M12 38.7C10.5833 38.7 9.125 38.5583 7.625 38.275C6.125 38.0083 4.73333 37.6833 3.45 37.3C2.16667 36.9 1.15 36.5167 0.4 36.15L1.15 29.35C2.31667 29.9167 3.53333 30.4417 4.8 30.925C6.06667 31.4083 7.36667 31.8 8.7 32.1C10.0333 32.4 11.3833 32.55 12.75 32.55C14.45 32.55 15.8167 32.2167 16.85 31.55C17.8833 30.8833 18.4 29.8667 18.4 28.5C18.4 27.45 18.1083 26.6083 17.525 25.975C16.9417 25.325 16.05 24.75 14.85 24.25C13.65 23.7333 12.1167 23.15 10.25 22.5C8.38333 21.85 6.70833 21.1167 5.225 20.3C3.74167 19.4667 2.56667 18.4167 1.7 17.15C0.833333 15.8833 0.4 14.2667 0.4 12.3C0.4 10.3667 0.875 8.65 1.825 7.15C2.775 5.63333 4.19167 4.45 6.075 3.6C7.975 2.73333 10.3333 2.3 13.15 2.3C15.2833 2.3 17.3167 2.54166 19.25 3.025C21.1833 3.49167 22.8333 4 24.2 4.55L23.55 11.1C21.5833 10.2167 19.7333 9.55 18 9.1C16.2833 8.63333 14.5333 8.4 12.75 8.4C10.8833 8.4 9.44167 8.70833 8.425 9.325C7.40833 9.94167 6.9 10.8667 6.9 12.1C6.9 13.0833 7.18333 13.875 7.75 14.475C8.31667 15.075 9.125 15.5917 10.175 16.025C11.225 16.4417 12.4833 16.8833 13.95 17.35C16.4833 18.15 18.6083 19.0333 20.325 20C22.0583 20.95 23.3583 22.1083 24.225 23.475C25.1083 24.825 25.55 26.5 25.55 28.5C25.55 29.5 25.3917 30.5917 25.075 31.775C24.7583 32.9417 24.1333 34.05 23.2 35.1C22.2667 36.15 20.9 37.0167 19.1 37.7C17.3167 38.3667 14.95 38.7 12 38.7ZM29.6109 50.1V13H34.6109L35.8109 17.15L33.9609 16.5C35.1109 15.3167 36.3609 14.375 37.7109 13.675C39.0609 12.9583 40.7109 12.6 42.6609 12.6C45.1109 12.6 47.1693 13.1917 48.8359 14.375C50.5026 15.5583 51.7609 17.1333 52.6109 19.1C53.4776 21.0667 53.9109 23.2167 53.9109 25.55C53.9109 27.8833 53.4776 30.0333 52.6109 32C51.7609 33.9667 50.5026 35.5417 48.8359 36.725C47.1693 37.9083 45.1109 38.5 42.6609 38.5C40.7109 38.5 39.1276 38.2333 37.9109 37.7C36.6943 37.1667 35.4609 36.3167 34.2109 35.15L35.8109 33.9V50.1H29.6109ZM41.7109 33.4C43.5609 33.4 44.9943 32.675 46.0109 31.225C47.0443 29.7583 47.5609 27.8667 47.5609 25.55C47.5609 23.2167 47.0443 21.325 46.0109 19.875C44.9943 18.425 43.5609 17.7 41.7109 17.7C40.2776 17.7 39.1026 18.0333 38.1859 18.7C37.2693 19.3667 36.5943 20.2917 36.1609 21.475C35.7276 22.6417 35.5109 24 35.5109 25.55C35.5109 27.1 35.7276 28.4667 36.1609 29.65C36.5943 30.8167 37.2693 31.7333 38.1859 32.4C39.1026 33.0667 40.2776 33.4 41.7109 33.4ZM64.6242 38.5C63.1409 38.5 61.9242 38.2083 60.9742 37.625C60.0409 37.025 59.3492 36.2333 58.8992 35.25C58.4492 34.25 58.2242 33.15 58.2242 31.95V0.499997H64.4242V29.4C64.4242 30.7333 64.4992 31.6833 64.6492 32.25C64.8159 32.8 65.1159 33.1333 65.5492 33.25C65.9826 33.35 66.6076 33.4 67.4242 33.4L66.8742 38.5H64.6242ZM71.359 38V13H77.559V38H71.359ZM71.359 9.2V3H77.559V9.2H71.359ZM83.3707 38V13H89.5707V38H83.3707ZM83.3707 9.2V3H89.5707V9.2H83.3707ZM103.532 38.5C101.966 38.5 100.691 38.1833 99.7074 37.55C98.7241 36.9 97.9991 36.075 97.5324 35.075C97.0658 34.075 96.8324 33.0333 96.8324 31.95V18.1H93.2824L93.8324 13H96.8324V7.5L103.032 6.85V13H108.532V18.1H103.032V29.4C103.032 30.6667 103.107 31.5833 103.257 32.15C103.407 32.7 103.749 33.05 104.282 33.2C104.816 33.3333 105.666 33.4 106.832 33.4H108.532L107.982 38.5H103.532ZM123.92 38.5C121.203 38.5 118.887 37.9083 116.97 36.725C115.053 35.5417 113.587 33.9667 112.57 32C111.57 30.0333 111.07 27.8833 111.07 25.55C111.07 23.2 111.57 21.0333 112.57 19.05C113.587 17.0667 115.053 15.4833 116.97 14.3C118.887 13.1 121.203 12.5 123.92 12.5C126.637 12.5 128.953 13.1 130.87 14.3C132.787 15.4833 134.245 17.0667 135.245 19.05C136.262 21.0333 136.77 23.2 136.77 25.55C136.77 27.8833 136.262 30.0333 135.245 32C134.245 33.9667 132.787 35.5417 130.87 36.725C128.953 37.9083 126.637 38.5 123.92 38.5ZM123.92 33.4C126.003 33.4 127.603 32.675 128.72 31.225C129.853 29.7583 130.42 27.8667 130.42 25.55C130.42 23.2 129.853 21.2917 128.72 19.825C127.603 18.3417 126.003 17.6 123.92 17.6C121.853 17.6 120.253 18.3417 119.12 19.825C117.987 21.2917 117.42 23.2 117.42 25.55C117.42 27.8667 117.987 29.7583 119.12 31.225C120.253 32.675 121.853 33.4 123.92 33.4Z" fill="white"/>
</svg>
